# xmcd
#
# Track frame offsets: 
#        150
#        21530
#        39589
#        57684
#        77094
#        94518
#        114530
#        132618
#        151492
#        170497
#
# Disc length: 2508 seconds
#
# Revision: 2
# Processed by: cddbd v1.5.2PL0 Copyright (c) Steve Scherf et al.
# Submitted via: ExactAudioCopyFreeDBPlugin 1.0
#
DISCID=8909ca0a
DTITLE=Various Artist - Pickin' on Springsteen, Volume 2:  The Bluegr
DTITLE=ass Tribute
DYEAR=2003
DGENRE=Bluegrass
TTITLE0=David West and CMH Studio Musicians - Pink Cadillac
TTITLE1=David West and CMH Studio Musicians - One Step Up
TTITLE2=David West and CMH Studio Musicians - Atlantic City
TTITLE3=David West and CMH Studio Musicians - The Rising
TTITLE4=David West and CMH Studio Musicians - Tenth Avenue Freeze Out
TTITLE5=David West and CMH Studio Musicians - Independence Day
TTITLE6=David West and CMH Studio Musicians - Growing Up
TTITLE7=David West and CMH Studio Musicians - Badlands
TTITLE8=David West and CMH Studio Musicians - My Beautiful Rewards
TTITLE9=David West and CMH Studio Musicians - Jersey Beat
EXTD=YEAR: 2003
EXTT0=
EXTT1=
EXTT2=
EXTT3=
EXTT4=
EXTT5=
EXTT6=
EXTT7=
EXTT8=
EXTT9=Original Composition
PLAYORDER=
